#!OML:ASF F:\VICON\USERDATA\INSTALL\rory3\rory3.ASF
:FULLY-SPECIFIED
:DEGREES
381
root -0.0768698 17.0268 17.298 -157.701 -34.8852 -178.225
lowerback -13.317 0.660358 3.35466
upperback -5.85732 -0.161919 2.17776
thorax 1.31906 -0.356682 0.348799
lowerneck -10.2085 1.92899 -0.697198
upperneck 44.7096 -3.61608 1.83337
head 18.7346 -3.03259 -0.2139
rclavicle -4.70623e-014 -4.37326e-014
rhumerus -45.9921 -2.63478 -79.5345
rradius 13.5311
rwrist -15.6359
rhand -23.0527 10.9789
rfingers 7.12502
rthumb 3.39224 -18.9739
lclavicle -4.70623e-014 -4.37326e-014
lhumerus -50.4652 10.9927 72.9127
lradius 34.8718
lwrist 2.11042
lhand -3.18165 17.4753
lfingers 7.12502
lthumb 22.5396 46.1796
rfemur -31.9187 4.02117 33.343
rtibia 26.6409
rfoot -44.3043 -32.871
rtoes 42.6624
lfemur -8.24524 12.1018 -22.7178
ltibia 33.9535
lfoot 25.7488 19.7056
ltoes 4.88935
382
root -0.0791937 17.0259 17.2942 -157.785 -34.8418 -178.138
lowerback -13.3413 0.639375 3.27217
upperback -5.76958 -0.179549 2.26236
thorax 1.42421 -0.358455 0.480403
lowerneck -10.1296 1.86845 -0.767575
upperneck 44.619 -3.6675 1.81365
head 18.6553 -3.06523 -0.215094
rclavicle 4.49253e-014 -3.81667e-014
rhumerus -45.9632 -1.98651 -80.0167
rradius 13.7184
rwrist -16.8184
rhand -22.3115 10.1746
rfingers 7.12502
rthumb 4.10801 -19.7655
lclavicle 4.49253e-014 -3.81667e-014
lhumerus -50.2059 10.7901 73.312
lradius 34.2247
lwrist 2.28323
lhand -3.47731 17.8104
lfingers 7.12502
lthumb 22.2558 46.5489
rfemur -31.9386 3.84852 33.4836
rtibia 26.7749
rfoot -44.0751 -32.9129
rtoes 42.4372
lfemur -8.25613 12.288 -22.652
ltibia 34.0281
lfoot 25.7081 20.2174
ltoes 5.92671
383
root -0.0791943 17.0245 17.291 -157.723 -34.5619 -178.274
lowerback -13.2603 0.704796 3.01743
upperback -5.72905 -0.0498574 2.2279
thorax 1.42516 -0.286477 0.605998
lowerneck -10.128 1.82527 -0.925549
upperneck 44.6094 -3.75327 1.95154
head 18.6585 -3.10735 -0.134984
rclavicle 1.76918e-014 3.65764e-014
rhumerus -45.9851 -1.42627 -80.4899
rradius 13.9111
rwrist -17.8512
rhand -21.1731 8.9927
rfingers 7.12502
rthumb 5.20717 -20.9233
lclavicle 1.76918e-014 3.65764e-014
lhumerus -50.0049 10.2012 73.8719
lradius 33.726
lwrist 2.57905
lhand -3.73524 17.872
lfingers 7.12502
lthumb 22.0082 46.6399
rfemur -31.9512 4.05372 33.2908
rtibia 26.8758
rfoot -44.1044 -32.881
rtoes 42.6516
lfemur -8.29099 12.4646 -22.8978
ltibia 34.1269
lfoot 25.2675 21.2069
ltoes 7.7179
384
root -0.0823672 17.0231 17.2878 -157.649 -34.3203 -178.418
lowerback -13.0775 0.842734 2.9193
upperback -5.86216 0.159901 2.00736
thorax 1.19022 -0.187514 0.460781
lowerneck -9.91503 1.81531 -0.800428
upperneck 44.7171 -3.96728 2.12688
head 18.6823 -3.16989 -0.115804
rclavicle 7.07176e-014 -2.54444e-014
rhumerus -46.3469 -1.52437 -80.7349
rradius 14.0058
rwrist -18.1244
rhand -19.6875 7.79541
rfingers 7.12502
rthumb 6.64149 -22.0804
lclavicle 7.07176e-014 -2.54444e-014
lhumerus -50.2002 8.66784 74.6203
lradius 33.7415
lwrist 3.37343
lhand -3.93174 17.9914
lfingers 7.12502
lthumb 21.8195 46.7814
rfemur -31.949 3.99174 33.1734
rtibia 26.9385
rfoot -43.9262 -32.7609
rtoes 42.4983
lfemur -8.35468 12.6712 -23.1535
ltibia 34.2627
lfoot 24.6908 22.499
ltoes 10.159
385
root -0.0890811 17.0228 17.2831 -157.735 -34.318 -178.279
lowerback -13.0051 0.844981 3.03551
upperback -5.90932 0.148797 2.0186
thorax 1.10208 -0.198217 0.40548
lowerneck -9.84252 1.8757 -0.85891
upperneck 44.7721 -3.94757 2.25261
head 18.7032 -3.16624 -0.0439095
rclavicle 4.30866e-014 1.03368e-014
rhumerus -46.5717 -1.06218 -81.1686
rradius 14.0818
rwrist -18.656
rhand -18.9121 7.50219
rfingers 7.12502
rthumb 7.38999 -22.3487
lclavicle 4.30866e-014 1.03368e-014
lhumerus -50.2943 7.60668 75.3936
lradius 33.5659
lwrist 4.13961
lhand -4.18464 18.2683
lfingers 7.12502
lthumb 21.5766 47.0863
rfemur -31.8895 3.70828 33.3995
rtibia 26.9297
rfoot -43.6033 -32.7506
rtoes 42.0729
lfemur -8.46574 13.0421 -23.0485
ltibia 34.4628
lfoot 24.2147 23.626
ltoes 12.3615
386
root -0.0958161 17.0232 17.2807 -157.792 -34.3099 -178.141
lowerback -13.0116 0.776752 3.06439
upperback -5.82876 0.0510461 2.18251
thorax 1.18831 -0.242787 0.546258
lowerneck -10.0838 1.94717 -1.07045
upperneck 44.8244 -3.74104 2.22673
head 18.7981 -3.11428 0.0156768
rclavicle 5.27773e-014 -1.35174e-014
rhumerus -46.5511 0.163294 -81.9431
rradius 14.2553
rwrist -19.6397
rhand -18.3199 7.4352
rfingers 7.12502
rthumb 7.96161 -22.3949
lclavicle 5.27773e-014 -1.35174e-014
lhumerus -50.0788 7.2296 76.1178
lradius 33.0513
lwrist 4.54833
lhand -4.62739 18.4666
lfingers 7.12502
lthumb 21.1514 47.3328
rfemur -31.8678 3.62853 33.5056
rtibia 26.8408
rfoot -43.3926 -32.8059
rtoes 41.9302
lfemur -8.67713 13.3908 -22.9832
ltibia 34.7461
lfoot 24.1211 24.2866
ltoes 13.3071
387
root -0.0998401 17.0194 17.2783 -157.957 -34.293 -177.839
lowerback -12.8985 0.839935 3.34016
upperback -5.82633 0.105149 2.22986
thorax 1.13091 -0.221019 0.447763
lowerneck -10.2029 1.92183 -1.06281
upperneck 44.8058 -3.69934 2.1083
head 18.813 -3.10268 -0.0347927
rclavicle -6.95746e-016 7.15625e-015
rhumerus -46.6718 0.983705 -82.6192
rradius 14.4771
rwrist -20.2862
rhand -17.2136 6.67765
rfingers 7.12502
rthumb 9.02924 -23.1091
lclavicle -6.95746e-016 7.15625e-015
lhumerus -49.9194 6.45543 76.8474
lradius 32.5434
lwrist 4.86987
lhand -5.21737 18.4591
lfingers 7.12502
lthumb 20.5845 47.3877
rfemur -31.7913 3.60507 33.7743
rtibia 26.71
rfoot -43.2369 -32.7754
rtoes 42.1786
lfemur -8.87946 13.6225 -22.7811
ltibia 35.0892
lfoot 23.747 24.954
ltoes 14.4054
388
root -0.101046 17.0177 17.2783 -158.042 -34.0997 -177.508
lowerback -12.7469 0.987736 3.66231
upperback -5.92151 0.264977 2.20329
thorax 0.953574 -0.15478 0.260454
lowerneck -10.1264 1.87241 -1.06244
upperneck 44.6787 -3.72258 2.07821
head 18.7085 -3.11028 -0.0476902
rclavicle 3.49861e-014 0
rhumerus -46.855 1.35752 -83.0355
rradius 14.6917
rwrist -20.4213
rhand -15.9469 5.68026
rfingers 7.12502
rthumb 10.2514 -24.0499
lclavicle 3.49861e-014 0
lhumerus -49.8729 5.46782 77.5336
lradius 32.1156
lwrist 5.07599
lhand -5.46657 18.5559
lfingers 7.12502
lthumb 20.3451 47.5102
rfemur -31.833 3.5568 34.0971
rtibia 26.658
rfoot -42.8024 -32.6855
rtoes 42.1046
lfemur -9.1607 13.8796 -22.6481
ltibia 35.3988
lfoot 22.7442 26.2438
ltoes 16.8641
389
root -0.101585 17.0134 17.2784 -157.985 -33.8186 -177.361
lowerback -12.7568 1.10611 3.7
upperback -5.91762 0.41215 2.23439
thorax 0.966116 -0.083133 0.291418
lowerneck -10.252 1.84839 -1.30531
upperneck 44.6826 -3.71778 2.18128
head 18.7526 -3.12946 0.0463453
rclavicle -8.41356e-014 4.45278e-014
rhumerus -46.9205 2.20442 -83.6884
rradius 14.9916
rwrist -21.0633
rhand -14.9547 4.81142
rfingers 7.12502
rthumb 11.2085 -24.8692
lclavicle -8.41356e-014 4.45278e-014
lhumerus -49.8344 4.2989 78.5951
lradius 32.0218
lwrist 5.62847
lhand -5.58592 18.9973
lfingers 7.12502
lthumb 20.2304 47.9638
rfemur -31.9686 3.29904 34.3314
rtibia 26.6764
rfoot -41.9421 -32.7238
rtoes 41.3743
lfemur -9.48399 14.2218 -22.7302
ltibia 35.6677
lfoot 21.8371 27.5674
ltoes 19.1811
390
root -0.108237 17.0118 17.2714 -157.826 -33.8441 -177.676
lowerback -12.8246 0.960937 3.36284
upperback -5.79757 0.264358 2.27489
thorax 1.12358 -0.141412 0.503196
lowerneck -10.464 1.91723 -1.48613
upperneck 44.7506 -3.58042 2.25032
head 18.8554 -3.09087 0.133642
rclavicle 9.46215e-014 1.59028e-015
rhumerus -46.8627 3.28 -84.3451
rradius 15.2411
rwrist -21.7312
rhand -13.1076 3.46785
rfingers 7.12502
rthumb 12.9895 -26.1078
lclavicle 9.46215e-014 1.59028e-015
lhumerus -49.8161 3.23622 79.7778
lradius 31.9754
lwrist 6.30323
lhand -5.77005 19.0171
lfingers 7.12502
lthumb 20.0534 48.0022
rfemur -32.0339 2.73179 34.2461
rtibia 26.8066
rfoot -41.3056 -32.8863
rtoes 40.4445
lfemur -9.5915 14.3543 -23.0319
ltibia 35.8294
lfoot 21.663 28.2621
ltoes 19.7308
391
root -0.115634 17.0113 17.2646 -157.745 -33.899 -177.89
lowerback -12.6935 0.887431 3.27373
upperback -5.81977 0.192617 2.19521
thorax 1.02874 -0.175371 0.460055
lowerneck -10.478 1.96107 -1.46633
upperneck 44.7393 -3.53302 2.30273
head 18.8518 -3.06129 0.163937
rclavicle 2.48481e-014 8.74653e-015
rhumerus -47.0985 3.91804 -84.9285
rradius 15.5066
rwrist -22.1314
rhand -10.0495 1.32509
rfingers 7.12502
rthumb 15.9359 -28.0393
lclavicle 2.48481e-014 8.74653e-015
lhumerus -49.8659 2.44466 80.3789
lradius 31.4316
lwrist 6.32364
lhand -5.8156 18.5285
lfingers 7.12502
lthumb 20.0096 47.5182
rfemur -32.0652 2.60652 34.0766
rtibia 26.9693
rfoot -41.4912 -32.8059
rtoes 40.3763
lfemur -9.65509 14.5198 -23.2104
ltibia 35.9681
lfoot 22.0063 28.4314
ltoes 19.1823
392
root -0.120704 17.0126 17.2586 -157.67 -33.7417 -178.02
lowerback -12.5286 0.998762 3.2757
upperback -5.8761 0.358272 2.00598
thorax 0.884713 -0.0954225 0.283305
lowerneck -10.5393 1.95124 -1.41018
upperneck 44.8381 -3.65137 2.42471
head 18.943 -3.08695 0.187079
rclavicle -2.33572e-015 -3.18055e-014
rhumerus -47.4166 4.01706 -85.2924
rradius 15.7799
rwrist -22.2353
rhand -9.72889 1.49254
rfingers 7.12502
rthumb 16.2447 -27.8469
lclavicle -2.33572e-015 -3.18055e-014
lhumerus -49.836 1.4229 80.8629
lradius 30.65
lwrist 5.85409
lhand -5.56305 17.9456
lfingers 7.12502
lthumb 20.2524 46.9098
rfemur -32.11 2.67031 33.9038
rtibia 27.1026
rfoot -41.5653 -32.7153
rtoes 40.5153
lfemur -9.75643 14.7737 -23.424
ltibia 36.131
lfoot 21.9857 28.8404
ltoes 19.2892
393
root -0.120885 17.0097 17.2517 -157.742 -33.6169 -177.906
lowerback -12.524 1.06067 3.25883
upperback -5.78936 0.446454 2.04182
thorax 0.974039 -0.045609 0.341569
lowerneck -10.7935 1.91843 -1.44555
upperneck 44.9297 -3.6697 2.37946
head 19.075 -3.09784 0.164151
rclavicle -1.12761e-013 7.95139e-016
rhumerus -47.4778 4.36103 -85.5281
rradius 15.9717
rwrist -22.1067
rhand -9.41051 1.86619
rfingers 7.12502
rthumb 16.5512 -27.4479
lclavicle -1.12761e-013 7.95139e-016
lhumerus -49.7438 0.322805 81.8321
lradius 30.2949
lwrist 5.58794
lhand -5.41353 17.9801
lfingers 7.12502
lthumb 20.396 46.929
rfemur -32.0951 2.79918 33.9677
rtibia 27.1263
rfoot -41.535 -32.77
rtoes 40.5013
lfemur -9.9058 14.9012 -23.411
ltibia 36.3953
lfoot 21.033 29.9127
ltoes 20.9797
394
root -0.118377 17.0012 17.2479 -157.806 -33.3732 -177.739
lowerback -12.5978 1.09453 3.16427
upperback -5.67061 0.497846 2.15638
thorax 1.13697 -0.0117379 0.52131
lowerneck -10.9242 1.8851 -1.40455
upperneck 44.8185 -3.5561 2.14039
head 19.0242 -3.05852 0.0661852
rclavicle -4.85035e-014 -1.27222e-014
rhumerus -47.5304 5.48061 -86.2366
rradius 16.2361
rwrist -22.5273
rhand -8.4188 1.69317
rfingers 7.12502
rthumb 17.5058 -27.5386
lclavicle -4.85035e-014 -1.27222e-014
lhumerus -49.775 -0.678676 82.9241
lradius 30.2216
lwrist 5.32493
lhand -5.53057 18.12
lfingers 7.12502
lthumb 20.2836 47.0808
rfemur -32.055 2.97103 34.0819
rtibia 27.0532
rfoot -41.4055 -32.7163
rtoes 40.5217
lfemur -10.1645 15.2965 -23.4022
ltibia 36.7695
lfoot 20.2999 30.7144
ltoes 22.2997
